<?xml version="1.0" encoding="UTF-8" standalone="no"?>
<!DOCTYPE svg PUBLIC "-//W3C//DTD SVG 1.1//EN"
 "http://www.w3.org/Graphics/SVG/1.1/DTD/svg11.dtd">
<!-- Generated by graphviz version 2.43.0 (0)
 -->
<!-- Title: %3 Pages: 1 -->
<svg width="3580pt" height="632pt"
 viewBox="0.00 0.00 3580.00 632.00" xmlns="http://www.w3.org/2000/svg" xmlns:xlink="http://www.w3.org/1999/xlink">
<g id="graph0" class="graph" transform="scale(1 1) rotate(0) translate(4 628)">
<title>%3</title>
<polygon fill="white" stroke="transparent" points="-4,4 -4,-628 3576,-628 3576,4 -4,4"/>
<g id="clust1" class="cluster">
<title>cluster_369287</title>
<g id="a_clust1"><a xlink:title="lbb_369287">
<polygon fill="lightgrey" stroke="lightgrey" points="8,-221 8,-616 1655,-616 1655,-221 8,-221"/>
<text text-anchor="middle" x="831.5" y="-600.8" font-family="Times,serif" font-size="14.00">entrypoint</text>
</a>
</g>
</g>
<g id="clust8" class="cluster">
<title>cluster_17014</title>
<g id="a_clust8"><a xlink:title="lbb_17014">
<polygon fill="lightgrey" stroke="lightgrey" points="497,-8 497,-213 3564,-213 3564,-8 497,-8"/>
<text text-anchor="middle" x="2030.5" y="-197.8" font-family="Times,serif" font-size="14.00">function_17014</text>
</a>
</g>
</g>
<!-- lbb_369287 -->
<g id="node1" class="node">
<title>lbb_369287</title>
<polygon fill="white" stroke="black" points="216,-394 16,-394 16,-292 216,-292 216,-394"/>
<text text-anchor="start" x="29" y="-373.8" font-family="Courier New" font-size="14.00">mov64</text>
<text text-anchor="start" x="79" y="-373.8" font-family="Courier New" font-size="14.00">r2, r1</text>
<text text-anchor="start" x="29" y="-350.8" font-family="Courier New" font-size="14.00">mov64</text>
<text text-anchor="start" x="79" y="-350.8" font-family="Courier New" font-size="14.00">r1, r10</text>
<text text-anchor="start" x="29" y="-327.8" font-family="Courier New" font-size="14.00">add64</text>
<text text-anchor="start" x="79" y="-327.8" font-family="Courier New" font-size="14.00">r1, &#45;80</text>
<text text-anchor="start" x="29" y="-304.8" font-family="Courier New" font-size="14.00">call</text>
<text text-anchor="start" x="79" y="-304.8" font-family="Courier New" font-size="14.00">function_387396</text>
</g>
<!-- lbb_369291 -->
<g id="node2" class="node">
<title>lbb_369291</title>
<polygon fill="white" stroke="black" points="461,-584.5 252,-584.5 252,-229.5 461,-229.5 461,-584.5"/>
<text text-anchor="start" x="265.5" y="-563.8" font-family="Courier New" font-size="14.00">ldxdw</text>
<text text-anchor="start" x="315.5" y="-563.8" font-family="Courier New" font-size="14.00">r2, [r10&#45;0x50]</text>
<text text-anchor="start" x="265.5" y="-540.8" font-family="Courier New" font-size="14.00">ldxdw</text>
<text text-anchor="start" x="315.5" y="-540.8" font-family="Courier New" font-size="14.00">r1, [r10&#45;0x48]</text>
<text text-anchor="start" x="265.5" y="-517.8" font-family="Courier New" font-size="14.00">stxdw</text>
<text text-anchor="start" x="315.5" y="-517.8" font-family="Courier New" font-size="14.00">[r10&#45;0x68], r1</text>
<text text-anchor="start" x="265.5" y="-494.8" font-family="Courier New" font-size="14.00">ldxdw</text>
<text text-anchor="start" x="315.5" y="-494.8" font-family="Courier New" font-size="14.00">r4, [r10&#45;0x38]</text>
<text text-anchor="start" x="265.5" y="-471.8" font-family="Courier New" font-size="14.00">stxdw</text>
<text text-anchor="start" x="315.5" y="-471.8" font-family="Courier New" font-size="14.00">[r10&#45;0x58], r4</text>
<text text-anchor="start" x="265.5" y="-448.8" font-family="Courier New" font-size="14.00">ldxdw</text>
<text text-anchor="start" x="315.5" y="-448.8" font-family="Courier New" font-size="14.00">r3, [r10&#45;0x40]</text>
<text text-anchor="start" x="265.5" y="-425.8" font-family="Courier New" font-size="14.00">stxdw</text>
<text text-anchor="start" x="315.5" y="-425.8" font-family="Courier New" font-size="14.00">[r10&#45;0x60], r3</text>
<text text-anchor="start" x="265.5" y="-402.8" font-family="Courier New" font-size="14.00">ldxdw</text>
<text text-anchor="start" x="315.5" y="-402.8" font-family="Courier New" font-size="14.00">r1, [r10&#45;0x28]</text>
<text text-anchor="start" x="265.5" y="-379.8" font-family="Courier New" font-size="14.00">ldxdw</text>
<text text-anchor="start" x="315.5" y="-379.8" font-family="Courier New" font-size="14.00">r5, [r10&#45;0x30]</text>
<text text-anchor="start" x="265.5" y="-356.8" font-family="Courier New" font-size="14.00">stxdw</text>
<text text-anchor="start" x="315.5" y="-356.8" font-family="Courier New" font-size="14.00">[r10&#45;0x1000], r5</text>
<text text-anchor="start" x="265.5" y="-333.8" font-family="Courier New" font-size="14.00">stxdw</text>
<text text-anchor="start" x="315.5" y="-333.8" font-family="Courier New" font-size="14.00">[r10&#45;0xff8], r1</text>
<text text-anchor="start" x="265.5" y="-310.8" font-family="Courier New" font-size="14.00">mov64</text>
<text text-anchor="start" x="315.5" y="-310.8" font-family="Courier New" font-size="14.00">r1, r10</text>
<text text-anchor="start" x="265.5" y="-287.8" font-family="Courier New" font-size="14.00">add64</text>
<text text-anchor="start" x="315.5" y="-287.8" font-family="Courier New" font-size="14.00">r1, &#45;32</text>
<text text-anchor="start" x="265.5" y="-264.8" font-family="Courier New" font-size="14.00">mov64</text>
<text text-anchor="start" x="315.5" y="-264.8" font-family="Courier New" font-size="14.00">r5, r10</text>
<text text-anchor="start" x="265.5" y="-241.8" font-family="Courier New" font-size="14.00">call</text>
<text text-anchor="start" x="315.5" y="-241.8" font-family="Courier New" font-size="14.00">function_336430</text>
</g>
<!-- lbb_369287&#45;&gt;lbb_369291 -->
<g id="edge2" class="edge">
<title>lbb_369287&#45;&gt;lbb_369291</title>
<path fill="none" stroke="black" d="M216.07,-369.59C224.63,-371.88 233.33,-374.22 241.98,-376.54"/>
<polygon fill="black" stroke="black" points="241.17,-379.94 251.73,-379.15 242.98,-373.18 241.17,-379.94"/>
</g>
<!-- lbb_409579 -->
<g id="node8" class="node">
<title>lbb_409579</title>
<polygon fill="white" stroke="black" points="406,-185 307,-185 307,-149 406,-149 406,-185"/>
<text text-anchor="middle" x="356.5" y="-163.3" font-family="Courier New" font-size="14.00">lbb_409579</text>
</g>
<!-- lbb_369287&#45;&gt;lbb_409579 -->
<g id="edge1" class="edge">
<title>lbb_369287&#45;&gt;lbb_409579</title>
<path fill="none" stroke="black" stroke-dasharray="1,5" d="M157.05,-291.71C182.55,-264.42 217.22,-231.82 252,-208 268.96,-196.39 289.03,-186.02 306.95,-178.37"/>
</g>
<!-- lbb_369306 -->
<g id="node3" class="node">
<title>lbb_369306</title>
<polygon fill="white" stroke="black" points="722,-446.5 497,-446.5 497,-367.5 722,-367.5 722,-446.5"/>
<text text-anchor="start" x="510.5" y="-425.8" font-family="Courier New" font-size="14.00">mov64</text>
<text text-anchor="start" x="560.5" y="-425.8" font-family="Courier New" font-size="14.00">r6, 0</text>
<text text-anchor="start" x="510.5" y="-402.8" font-family="Courier New" font-size="14.00">ldxw</text>
<text text-anchor="start" x="560.5" y="-402.8" font-family="Courier New" font-size="14.00">r1, [r10&#45;0x20]</text>
<text text-anchor="start" x="510.5" y="-379.8" font-family="Courier New" font-size="14.00">jeq</text>
<text text-anchor="start" x="560.5" y="-379.8" font-family="Courier New" font-size="14.00">r1, 22, lbb_369321</text>
</g>
<!-- lbb_369291&#45;&gt;lbb_369306 -->
<g id="edge4" class="edge">
<title>lbb_369291&#45;&gt;lbb_369306</title>
<path fill="none" stroke="black" d="M461.04,-407C469.48,-407 478.07,-407 486.62,-407"/>
<polygon fill="black" stroke="black" points="486.65,-410.5 496.65,-407 486.65,-403.5 486.65,-410.5"/>
</g>
<!-- lbb_369309 -->
<g id="node4" class="node">
<title>lbb_369309</title>
<polygon fill="white" stroke="black" points="958,-515.5 758,-515.5 758,-252.5 958,-252.5 958,-515.5"/>
<text text-anchor="start" x="771" y="-494.8" font-family="Courier New" font-size="14.00">ldxdw</text>
<text text-anchor="start" x="821" y="-494.8" font-family="Courier New" font-size="14.00">r1, [r10&#45;0x8]</text>
<text text-anchor="start" x="771" y="-471.8" font-family="Courier New" font-size="14.00">stxdw</text>
<text text-anchor="start" x="821" y="-471.8" font-family="Courier New" font-size="14.00">[r10&#45;0x38], r1</text>
<text text-anchor="start" x="771" y="-448.8" font-family="Courier New" font-size="14.00">ldxdw</text>
<text text-anchor="start" x="821" y="-448.8" font-family="Courier New" font-size="14.00">r1, [r10&#45;0x10]</text>
<text text-anchor="start" x="771" y="-425.8" font-family="Courier New" font-size="14.00">stxdw</text>
<text text-anchor="start" x="821" y="-425.8" font-family="Courier New" font-size="14.00">[r10&#45;0x40], r1</text>
<text text-anchor="start" x="771" y="-402.8" font-family="Courier New" font-size="14.00">ldxdw</text>
<text text-anchor="start" x="821" y="-402.8" font-family="Courier New" font-size="14.00">r1, [r10&#45;0x18]</text>
<text text-anchor="start" x="771" y="-379.8" font-family="Courier New" font-size="14.00">stxdw</text>
<text text-anchor="start" x="821" y="-379.8" font-family="Courier New" font-size="14.00">[r10&#45;0x48], r1</text>
<text text-anchor="start" x="771" y="-356.8" font-family="Courier New" font-size="14.00">ldxdw</text>
<text text-anchor="start" x="821" y="-356.8" font-family="Courier New" font-size="14.00">r1, [r10&#45;0x20]</text>
<text text-anchor="start" x="771" y="-333.8" font-family="Courier New" font-size="14.00">stxdw</text>
<text text-anchor="start" x="821" y="-333.8" font-family="Courier New" font-size="14.00">[r10&#45;0x50], r1</text>
<text text-anchor="start" x="771" y="-310.8" font-family="Courier New" font-size="14.00">mov64</text>
<text text-anchor="start" x="821" y="-310.8" font-family="Courier New" font-size="14.00">r1, r10</text>
<text text-anchor="start" x="771" y="-287.8" font-family="Courier New" font-size="14.00">add64</text>
<text text-anchor="start" x="821" y="-287.8" font-family="Courier New" font-size="14.00">r1, &#45;80</text>
<text text-anchor="start" x="771" y="-264.8" font-family="Courier New" font-size="14.00">call</text>
<text text-anchor="start" x="821" y="-264.8" font-family="Courier New" font-size="14.00">function_389183</text>
</g>
<!-- lbb_369306&#45;&gt;lbb_369309 -->
<g id="edge6" class="edge">
<title>lbb_369306&#45;&gt;lbb_369309</title>
<path fill="none" stroke="black" d="M722.21,-396.58C730.63,-395.79 739.13,-395 747.54,-394.21"/>
<polygon fill="black" stroke="black" points="748.11,-397.68 757.74,-393.26 747.46,-390.71 748.11,-397.68"/>
</g>
<!-- lbb_369321 -->
<g id="node6" class="node">
<title>lbb_369321</title>
<polygon fill="white" stroke="black" points="1439.5,-526.5 1247.5,-526.5 1247.5,-447.5 1439.5,-447.5 1439.5,-526.5"/>
<text text-anchor="start" x="1260.5" y="-505.8" font-family="Courier New" font-size="14.00">mov64</text>
<text text-anchor="start" x="1310.5" y="-505.8" font-family="Courier New" font-size="14.00">r1, r10</text>
<text text-anchor="start" x="1260.5" y="-482.8" font-family="Courier New" font-size="14.00">add64</text>
<text text-anchor="start" x="1310.5" y="-482.8" font-family="Courier New" font-size="14.00">r1, &#45;104</text>
<text text-anchor="start" x="1260.5" y="-459.8" font-family="Courier New" font-size="14.00">call</text>
<text text-anchor="start" x="1310.5" y="-459.8" font-family="Courier New" font-size="14.00">function_17014</text>
</g>
<!-- lbb_369306&#45;&gt;lbb_369321 -->
<g id="edge7" class="edge">
<title>lbb_369306&#45;&gt;lbb_369321</title>
<path fill="none" stroke="black" d="M645.48,-446.6C672.91,-474.48 713.75,-509.48 758,-525 918.07,-581.15 1117.7,-547.99 1237.38,-518.07"/>
<polygon fill="black" stroke="black" points="1238.45,-521.41 1247.28,-515.56 1236.73,-514.62 1238.45,-521.41"/>
</g>
<!-- lbb_369320 -->
<g id="node5" class="node">
<title>lbb_369320</title>
<polygon fill="white" stroke="black" points="1161.5,-436 1035.5,-436 1035.5,-400 1161.5,-400 1161.5,-436"/>
<text text-anchor="start" x="1048.5" y="-413.8" font-family="Courier New" font-size="14.00">mov64</text>
<text text-anchor="start" x="1098.5" y="-413.8" font-family="Courier New" font-size="14.00">r6, r0</text>
</g>
<!-- lbb_369309&#45;&gt;lbb_369320 -->
<g id="edge9" class="edge">
<title>lbb_369309&#45;&gt;lbb_369320</title>
<path fill="none" stroke="black" d="M958.07,-398.12C980.51,-401.32 1003.93,-404.66 1025.03,-407.67"/>
<polygon fill="black" stroke="black" points="1024.79,-411.17 1035.18,-409.12 1025.78,-404.24 1024.79,-411.17"/>
</g>
<!-- lbb_369320&#45;&gt;lbb_369321 -->
<g id="edge11" class="edge">
<title>lbb_369320&#45;&gt;lbb_369321</title>
<path fill="none" stroke="black" d="M1161.76,-435.68C1184.83,-442.23 1211.67,-449.85 1237.5,-457.18"/>
<polygon fill="black" stroke="black" points="1236.76,-460.61 1247.34,-459.98 1238.67,-453.88 1236.76,-460.61"/>
</g>
<!-- lbb_369324 -->
<g id="node7" class="node">
<title>lbb_369324</title>
<polygon fill="white" stroke="black" points="1647,-515 1521,-515 1521,-459 1647,-459 1647,-515"/>
<text text-anchor="start" x="1534" y="-494.8" font-family="Courier New" font-size="14.00">mov64</text>
<text text-anchor="start" x="1584" y="-494.8" font-family="Courier New" font-size="14.00">r0, r6</text>
<text text-anchor="start" x="1534" y="-471.8" font-family="Courier New" font-size="14.00">exit</text>
</g>
<!-- lbb_369321&#45;&gt;lbb_369324 -->
<g id="edge13" class="edge">
<title>lbb_369321&#45;&gt;lbb_369324</title>
<path fill="none" stroke="black" d="M1439.79,-487C1463.42,-487 1488.36,-487 1510.68,-487"/>
<polygon fill="black" stroke="black" points="1510.74,-490.5 1520.74,-487 1510.74,-483.5 1510.74,-490.5"/>
</g>
<!-- lbb_409579&#45;&gt;lbb_369287 -->
<g id="edge35" class="edge">
<title>lbb_409579&#45;&gt;lbb_369287</title>
<path fill="none" stroke="black" d="M327.46,-185.19C305.91,-195.78 275.87,-209.65 252,-226 227.04,-243.1 202.13,-264.71 180.64,-284.74"/>
<polygon fill="black" stroke="black" points="178.07,-282.35 173.18,-291.75 182.86,-287.45 178.07,-282.35"/>
</g>
<!-- lbb_17014 -->
<g id="node9" class="node">
<title>lbb_17014</title>
<polygon fill="white" stroke="black" points="714,-181.5 505,-181.5 505,-102.5 714,-102.5 714,-181.5"/>
<text text-anchor="start" x="518.5" y="-160.8" font-family="Courier New" font-size="14.00">mov64</text>
<text text-anchor="start" x="568.5" y="-160.8" font-family="Courier New" font-size="14.00">r6, r1</text>
<text text-anchor="start" x="518.5" y="-137.8" font-family="Courier New" font-size="14.00">ldxdw</text>
<text text-anchor="start" x="568.5" y="-137.8" font-family="Courier New" font-size="14.00">r7, [r6+0x10]</text>
<text text-anchor="start" x="518.5" y="-114.8" font-family="Courier New" font-size="14.00">jeq</text>
<text text-anchor="start" x="568.5" y="-114.8" font-family="Courier New" font-size="14.00">r7, 0, lbb_17036</text>
</g>
<!-- lbb_409579&#45;&gt;lbb_17014 -->
<g id="edge36" class="edge">
<title>lbb_409579&#45;&gt;lbb_17014</title>
<path fill="none" stroke="black" d="M406.19,-162.15C431.54,-159.63 463.67,-156.43 494.82,-153.32"/>
<polygon fill="black" stroke="black" points="495.28,-156.79 504.89,-152.32 494.59,-149.83 495.28,-156.79"/>
</g>
<!-- lbb_17017 -->
<g id="node10" class="node">
<title>lbb_17017</title>
<polygon fill="white" stroke="black" points="946,-156 770,-156 770,-54 946,-54 946,-156"/>
<text text-anchor="start" x="783" y="-135.8" font-family="Courier New" font-size="14.00">ldxdw</text>
<text text-anchor="start" x="833" y="-135.8" font-family="Courier New" font-size="14.00">r8, [r6+0x8]</text>
<text text-anchor="start" x="783" y="-112.8" font-family="Courier New" font-size="14.00">mul64</text>
<text text-anchor="start" x="833" y="-112.8" font-family="Courier New" font-size="14.00">r7, 48</text>
<text text-anchor="start" x="783" y="-89.8" font-family="Courier New" font-size="14.00">add64</text>
<text text-anchor="start" x="833" y="-89.8" font-family="Courier New" font-size="14.00">r8, 16</text>
<text text-anchor="start" x="783" y="-66.8" font-family="Courier New" font-size="14.00">ja</text>
<text text-anchor="start" x="833" y="-66.8" font-family="Courier New" font-size="14.00">lbb_17043</text>
</g>
<!-- lbb_17014&#45;&gt;lbb_17017 -->
<g id="edge15" class="edge">
<title>lbb_17014&#45;&gt;lbb_17017</title>
<path fill="none" stroke="black" d="M714.32,-126.42C729.29,-124.17 744.65,-121.86 759.49,-119.64"/>
<polygon fill="black" stroke="black" points="760.3,-123.05 769.67,-118.11 759.26,-116.13 760.3,-123.05"/>
</g>
<!-- lbb_17036 -->
<g id="node19" class="node">
<title>lbb_17036</title>
<polygon fill="white" stroke="black" points="3062,-166 2853,-166 2853,-110 3062,-110 3062,-166"/>
<text text-anchor="start" x="2866.5" y="-145.8" font-family="Courier New" font-size="14.00">ldxdw</text>
<text text-anchor="start" x="2916.5" y="-145.8" font-family="Courier New" font-size="14.00">r2, [r6+0x0]</text>
<text text-anchor="start" x="2866.5" y="-122.8" font-family="Courier New" font-size="14.00">jeq</text>
<text text-anchor="start" x="2916.5" y="-122.8" font-family="Courier New" font-size="14.00">r2, 0, lbb_17056</text>
</g>
<!-- lbb_17014&#45;&gt;lbb_17036 -->
<g id="edge16" class="edge">
<title>lbb_17014&#45;&gt;lbb_17036</title>
<path fill="none" stroke="black" d="M714.27,-159.62C728.92,-161.68 743.82,-163.56 758,-165 908.29,-180.21 946.44,-181 1097.5,-181 1097.5,-181 1097.5,-181 2473,-181 2625.94,-181 2665.4,-192.22 2817,-172 2825.53,-170.86 2834.29,-169.41 2843.07,-167.76"/>
<polygon fill="black" stroke="black" points="2843.85,-171.17 2852.98,-165.81 2842.49,-164.31 2843.85,-171.17"/>
</g>
<!-- lbb_17043 -->
<g id="node11" class="node">
<title>lbb_17043</title>
<polygon fill="white" stroke="black" points="1203,-161.5 994,-161.5 994,-36.5 1203,-36.5 1203,-161.5"/>
<text text-anchor="start" x="1007.5" y="-140.8" font-family="Courier New" font-size="14.00">ldxdw</text>
<text text-anchor="start" x="1057.5" y="-140.8" font-family="Courier New" font-size="14.00">r1, [r8&#45;0x8]</text>
<text text-anchor="start" x="1007.5" y="-117.8" font-family="Courier New" font-size="14.00">ldxdw</text>
<text text-anchor="start" x="1057.5" y="-117.8" font-family="Courier New" font-size="14.00">r2, [r1+0x0]</text>
<text text-anchor="start" x="1007.5" y="-94.8" font-family="Courier New" font-size="14.00">add64</text>
<text text-anchor="start" x="1057.5" y="-94.8" font-family="Courier New" font-size="14.00">r2, &#45;1</text>
<text text-anchor="start" x="1007.5" y="-71.8" font-family="Courier New" font-size="14.00">stxdw</text>
<text text-anchor="start" x="1057.5" y="-71.8" font-family="Courier New" font-size="14.00">[r1+0x0], r2</text>
<text text-anchor="start" x="1007.5" y="-48.8" font-family="Courier New" font-size="14.00">jne</text>
<text text-anchor="start" x="1057.5" y="-48.8" font-family="Courier New" font-size="14.00">r2, 0, lbb_17021</text>
</g>
<!-- lbb_17017&#45;&gt;lbb_17043 -->
<g id="edge17" class="edge">
<title>lbb_17017&#45;&gt;lbb_17043</title>
<path fill="none" stroke="black" d="M946.12,-102.81C958.3,-102.5 970.96,-102.18 983.54,-101.87"/>
<polygon fill="black" stroke="black" points="983.7,-105.36 993.61,-101.61 983.52,-98.37 983.7,-105.36"/>
</g>
<!-- lbb_17048 -->
<g id="node12" class="node">
<title>lbb_17048</title>
<polygon fill="white" stroke="black" points="1448,-120 1239,-120 1239,-18 1448,-18 1448,-120"/>
<text text-anchor="start" x="1252.5" y="-99.8" font-family="Courier New" font-size="14.00">ldxdw</text>
<text text-anchor="start" x="1302.5" y="-99.8" font-family="Courier New" font-size="14.00">r2, [r1+0x8]</text>
<text text-anchor="start" x="1252.5" y="-76.8" font-family="Courier New" font-size="14.00">add64</text>
<text text-anchor="start" x="1302.5" y="-76.8" font-family="Courier New" font-size="14.00">r2, &#45;1</text>
<text text-anchor="start" x="1252.5" y="-53.8" font-family="Courier New" font-size="14.00">stxdw</text>
<text text-anchor="start" x="1302.5" y="-53.8" font-family="Courier New" font-size="14.00">[r1+0x8], r2</text>
<text text-anchor="start" x="1252.5" y="-30.8" font-family="Courier New" font-size="14.00">jne</text>
<text text-anchor="start" x="1302.5" y="-30.8" font-family="Courier New" font-size="14.00">r2, 0, lbb_17021</text>
</g>
<!-- lbb_17043&#45;&gt;lbb_17048 -->
<g id="edge29" class="edge">
<title>lbb_17043&#45;&gt;lbb_17048</title>
<path fill="none" stroke="black" d="M1203.26,-86.19C1211.7,-85.15 1220.25,-84.09 1228.75,-83.04"/>
<polygon fill="black" stroke="black" points="1229.21,-86.51 1238.7,-81.81 1228.35,-79.57 1229.21,-86.51"/>
</g>
<!-- lbb_17021 -->
<g id="node15" class="node">
<title>lbb_17021</title>
<polygon fill="white" stroke="black" points="2091,-141.5 1882,-141.5 1882,-16.5 2091,-16.5 2091,-141.5"/>
<text text-anchor="start" x="1895.5" y="-120.8" font-family="Courier New" font-size="14.00">ldxdw</text>
<text text-anchor="start" x="1945.5" y="-120.8" font-family="Courier New" font-size="14.00">r1, [r8+0x0]</text>
<text text-anchor="start" x="1895.5" y="-97.8" font-family="Courier New" font-size="14.00">ldxdw</text>
<text text-anchor="start" x="1945.5" y="-97.8" font-family="Courier New" font-size="14.00">r2, [r1+0x0]</text>
<text text-anchor="start" x="1895.5" y="-74.8" font-family="Courier New" font-size="14.00">add64</text>
<text text-anchor="start" x="1945.5" y="-74.8" font-family="Courier New" font-size="14.00">r2, &#45;1</text>
<text text-anchor="start" x="1895.5" y="-51.8" font-family="Courier New" font-size="14.00">stxdw</text>
<text text-anchor="start" x="1945.5" y="-51.8" font-family="Courier New" font-size="14.00">[r1+0x0], r2</text>
<text text-anchor="start" x="1895.5" y="-28.8" font-family="Courier New" font-size="14.00">jne</text>
<text text-anchor="start" x="1945.5" y="-28.8" font-family="Courier New" font-size="14.00">r2, 0, lbb_17033</text>
</g>
<!-- lbb_17043&#45;&gt;lbb_17021 -->
<g id="edge30" class="edge">
<title>lbb_17043&#45;&gt;lbb_17021</title>
<path fill="none" stroke="black" d="M1203.13,-123.47C1215.17,-125.66 1227.32,-127.59 1239,-129 1390.85,-147.38 1430.15,-133.32 1583,-139"/>
</g>
<!-- lbb_17052 -->
<g id="node13" class="node">
<title>lbb_17052</title>
<polygon fill="white" stroke="black" points="1684,-111.5 1484,-111.5 1484,-32.5 1684,-32.5 1684,-111.5"/>
<text text-anchor="start" x="1497" y="-90.8" font-family="Courier New" font-size="14.00">mov64</text>
<text text-anchor="start" x="1547" y="-90.8" font-family="Courier New" font-size="14.00">r2, 32</text>
<text text-anchor="start" x="1497" y="-67.8" font-family="Courier New" font-size="14.00">mov64</text>
<text text-anchor="start" x="1547" y="-67.8" font-family="Courier New" font-size="14.00">r3, 8</text>
<text text-anchor="start" x="1497" y="-44.8" font-family="Courier New" font-size="14.00">call</text>
<text text-anchor="start" x="1547" y="-44.8" font-family="Courier New" font-size="14.00">function_373318</text>
</g>
<!-- lbb_17048&#45;&gt;lbb_17052 -->
<g id="edge31" class="edge">
<title>lbb_17048&#45;&gt;lbb_17052</title>
<path fill="none" stroke="black" d="M1448.07,-70.3C1456.47,-70.41 1464.98,-70.52 1473.42,-70.62"/>
<polygon fill="black" stroke="black" points="1473.63,-74.12 1483.67,-70.75 1473.72,-67.12 1473.63,-74.12"/>
</g>
<!-- lbb_17048&#45;&gt;lbb_17021 -->
<g id="edge32" class="edge">
<title>lbb_17048&#45;&gt;lbb_17021</title>
<path fill="none" stroke="black" d="M1448.2,-109.95C1460.17,-113.99 1472.29,-117.78 1484,-121 1527.12,-132.86 1538.4,-135.77 1583,-139"/>
<path fill="none" stroke="black" d="M1585,-139C1682.34,-146.05 1791.87,-127.81 1871.76,-109.64"/>
<polygon fill="black" stroke="black" points="1872.88,-112.97 1881.84,-107.31 1871.31,-106.15 1872.88,-112.97"/>
</g>
<!-- lbb_17055 -->
<g id="node14" class="node">
<title>lbb_17055</title>
<polygon fill="white" stroke="black" points="1846,-93 1720,-93 1720,-57 1846,-57 1846,-93"/>
<text text-anchor="start" x="1733" y="-70.8" font-family="Courier New" font-size="14.00">ja</text>
<text text-anchor="start" x="1758" y="-70.8" font-family="Courier New" font-size="14.00">lbb_17021</text>
</g>
<!-- lbb_17052&#45;&gt;lbb_17055 -->
<g id="edge33" class="edge">
<title>lbb_17052&#45;&gt;lbb_17055</title>
<path fill="none" stroke="black" d="M1684.08,-73.51C1692.73,-73.64 1701.37,-73.77 1709.75,-73.9"/>
<polygon fill="black" stroke="black" points="1709.75,-77.4 1719.8,-74.05 1709.86,-70.4 1709.75,-77.4"/>
</g>
<!-- lbb_17055&#45;&gt;lbb_17021 -->
<g id="edge34" class="edge">
<title>lbb_17055&#45;&gt;lbb_17021</title>
<path fill="none" stroke="black" d="M1846.1,-76.23C1854.25,-76.39 1862.79,-76.56 1871.46,-76.74"/>
<polygon fill="black" stroke="black" points="1871.63,-80.24 1881.69,-76.94 1871.77,-73.24 1871.63,-80.24"/>
</g>
<!-- lbb_17026 -->
<g id="node16" class="node">
<title>lbb_17026</title>
<polygon fill="white" stroke="black" points="2336,-120 2127,-120 2127,-18 2336,-18 2336,-120"/>
<text text-anchor="start" x="2140.5" y="-99.8" font-family="Courier New" font-size="14.00">ldxdw</text>
<text text-anchor="start" x="2190.5" y="-99.8" font-family="Courier New" font-size="14.00">r2, [r1+0x8]</text>
<text text-anchor="start" x="2140.5" y="-76.8" font-family="Courier New" font-size="14.00">add64</text>
<text text-anchor="start" x="2190.5" y="-76.8" font-family="Courier New" font-size="14.00">r2, &#45;1</text>
<text text-anchor="start" x="2140.5" y="-53.8" font-family="Courier New" font-size="14.00">stxdw</text>
<text text-anchor="start" x="2190.5" y="-53.8" font-family="Courier New" font-size="14.00">[r1+0x8], r2</text>
<text text-anchor="start" x="2140.5" y="-30.8" font-family="Courier New" font-size="14.00">jne</text>
<text text-anchor="start" x="2190.5" y="-30.8" font-family="Courier New" font-size="14.00">r2, 0, lbb_17033</text>
</g>
<!-- lbb_17021&#45;&gt;lbb_17026 -->
<g id="edge18" class="edge">
<title>lbb_17021&#45;&gt;lbb_17026</title>
<path fill="none" stroke="black" d="M2091.26,-74.73C2099.6,-74.39 2108.06,-74.04 2116.48,-73.69"/>
<polygon fill="black" stroke="black" points="2116.85,-77.18 2126.7,-73.27 2116.57,-70.19 2116.85,-77.18"/>
</g>
<!-- lbb_17033 -->
<g id="node18" class="node">
<title>lbb_17033</title>
<polygon fill="white" stroke="black" points="2817,-162.5 2608,-162.5 2608,-83.5 2817,-83.5 2817,-162.5"/>
<text text-anchor="start" x="2621.5" y="-141.8" font-family="Courier New" font-size="14.00">add64</text>
<text text-anchor="start" x="2671.5" y="-141.8" font-family="Courier New" font-size="14.00">r8, 48</text>
<text text-anchor="start" x="2621.5" y="-118.8" font-family="Courier New" font-size="14.00">add64</text>
<text text-anchor="start" x="2671.5" y="-118.8" font-family="Courier New" font-size="14.00">r7, &#45;48</text>
<text text-anchor="start" x="2621.5" y="-95.8" font-family="Courier New" font-size="14.00">jne</text>
<text text-anchor="start" x="2671.5" y="-95.8" font-family="Courier New" font-size="14.00">r7, 0, lbb_17043</text>
</g>
<!-- lbb_17021&#45;&gt;lbb_17033 -->
<g id="edge19" class="edge">
<title>lbb_17021&#45;&gt;lbb_17033</title>
<path fill="none" stroke="black" d="M2091.25,-120.19C2103.16,-123.72 2115.24,-126.78 2127,-129 2277.3,-157.38 2318.16,-133.03 2471,-139"/>
</g>
<!-- lbb_17030 -->
<g id="node17" class="node">
<title>lbb_17030</title>
<polygon fill="white" stroke="black" points="2572,-114.5 2372,-114.5 2372,-35.5 2572,-35.5 2572,-114.5"/>
<text text-anchor="start" x="2385" y="-93.8" font-family="Courier New" font-size="14.00">mov64</text>
<text text-anchor="start" x="2435" y="-93.8" font-family="Courier New" font-size="14.00">r2, 40</text>
<text text-anchor="start" x="2385" y="-70.8" font-family="Courier New" font-size="14.00">mov64</text>
<text text-anchor="start" x="2435" y="-70.8" font-family="Courier New" font-size="14.00">r3, 8</text>
<text text-anchor="start" x="2385" y="-47.8" font-family="Courier New" font-size="14.00">call</text>
<text text-anchor="start" x="2435" y="-47.8" font-family="Courier New" font-size="14.00">function_373318</text>
</g>
<!-- lbb_17026&#45;&gt;lbb_17030 -->
<g id="edge20" class="edge">
<title>lbb_17026&#45;&gt;lbb_17030</title>
<path fill="none" stroke="black" d="M2336.07,-71.61C2344.47,-71.82 2352.98,-72.03 2361.42,-72.24"/>
<polygon fill="black" stroke="black" points="2361.59,-75.75 2371.67,-72.5 2361.76,-68.75 2361.59,-75.75"/>
</g>
<!-- lbb_17026&#45;&gt;lbb_17033 -->
<g id="edge21" class="edge">
<title>lbb_17026&#45;&gt;lbb_17033</title>
<path fill="none" stroke="black" d="M2336.38,-112.89C2348.27,-117.04 2360.31,-120.85 2372,-124 2414.97,-135.57 2426.53,-137.26 2471,-139"/>
<path fill="none" stroke="black" d="M2473,-139C2513.72,-140.59 2558.3,-138.61 2597.78,-135.56"/>
<polygon fill="black" stroke="black" points="2598.28,-139.03 2607.97,-134.74 2597.72,-132.05 2598.28,-139.03"/>
</g>
<!-- lbb_17030&#45;&gt;lbb_17033 -->
<g id="edge22" class="edge">
<title>lbb_17030&#45;&gt;lbb_17033</title>
<path fill="none" stroke="black" d="M2572.07,-94.94C2580.54,-96.64 2589.14,-98.37 2597.7,-100.1"/>
<polygon fill="black" stroke="black" points="2597.24,-103.57 2607.73,-102.12 2598.62,-96.71 2597.24,-103.57"/>
</g>
<!-- lbb_17033&#45;&gt;lbb_17043 -->
<g id="edge23" class="edge">
<title>lbb_17033&#45;&gt;lbb_17043</title>
<path fill="none" stroke="black" d="M2607.66,-139.79C2595.66,-141.39 2583.58,-142.84 2572,-144 2421.67,-159.04 2383.58,-161 2232.5,-161 1583,-161 1583,-161 1583,-161 1429.77,-161 1390.03,-163.88 1239,-138 1230.54,-136.55 1221.85,-134.79 1213.15,-132.84"/>
<polygon fill="black" stroke="black" points="1213.86,-129.41 1203.33,-130.55 1212.27,-136.23 1213.86,-129.41"/>
</g>
<!-- lbb_17033&#45;&gt;lbb_17036 -->
<g id="edge24" class="edge">
<title>lbb_17033&#45;&gt;lbb_17036</title>
<path fill="none" stroke="black" d="M2817.26,-129.4C2825.6,-129.92 2834.06,-130.44 2842.48,-130.96"/>
<polygon fill="black" stroke="black" points="2842.5,-134.47 2852.7,-131.59 2842.94,-127.48 2842.5,-134.47"/>
</g>
<!-- lbb_17038 -->
<g id="node20" class="node">
<title>lbb_17038</title>
<polygon fill="white" stroke="black" points="3298,-140 3098,-140 3098,-38 3298,-38 3298,-140"/>
<text text-anchor="start" x="3111" y="-119.8" font-family="Courier New" font-size="14.00">ldxdw</text>
<text text-anchor="start" x="3161" y="-119.8" font-family="Courier New" font-size="14.00">r1, [r6+0x8]</text>
<text text-anchor="start" x="3111" y="-96.8" font-family="Courier New" font-size="14.00">mul64</text>
<text text-anchor="start" x="3161" y="-96.8" font-family="Courier New" font-size="14.00">r2, 48</text>
<text text-anchor="start" x="3111" y="-73.8" font-family="Courier New" font-size="14.00">mov64</text>
<text text-anchor="start" x="3161" y="-73.8" font-family="Courier New" font-size="14.00">r3, 8</text>
<text text-anchor="start" x="3111" y="-50.8" font-family="Courier New" font-size="14.00">call</text>
<text text-anchor="start" x="3161" y="-50.8" font-family="Courier New" font-size="14.00">function_373318</text>
</g>
<!-- lbb_17036&#45;&gt;lbb_17038 -->
<g id="edge25" class="edge">
<title>lbb_17036&#45;&gt;lbb_17038</title>
<path fill="none" stroke="black" d="M3062.07,-116.72C3070.56,-114.98 3079.16,-113.21 3087.7,-111.46"/>
<polygon fill="black" stroke="black" points="3088.58,-114.85 3097.67,-109.41 3087.17,-107.99 3088.58,-114.85"/>
</g>
<!-- lbb_17056 -->
<g id="node22" class="node">
<title>lbb_17056</title>
<polygon fill="white" stroke="black" points="3556,-158 3496,-158 3496,-122 3556,-122 3556,-158"/>
<text text-anchor="start" x="3509" y="-135.8" font-family="Courier New" font-size="14.00">exit</text>
</g>
<!-- lbb_17036&#45;&gt;lbb_17056 -->
<g id="edge26" class="edge">
<title>lbb_17036&#45;&gt;lbb_17056</title>
<path fill="none" stroke="black" d="M3062.05,-147.08C3074.16,-147.87 3086.35,-148.54 3098,-149 3240.65,-154.62 3410.25,-146.69 3485.58,-142.42"/>
<polygon fill="black" stroke="black" points="3486.21,-145.89 3496,-141.82 3485.81,-138.9 3486.21,-145.89"/>
</g>
<!-- lbb_17042 -->
<g id="node21" class="node">
<title>lbb_17042</title>
<polygon fill="white" stroke="black" points="3460,-123 3334,-123 3334,-87 3460,-87 3460,-123"/>
<text text-anchor="start" x="3347" y="-100.8" font-family="Courier New" font-size="14.00">ja</text>
<text text-anchor="start" x="3372" y="-100.8" font-family="Courier New" font-size="14.00">lbb_17056</text>
</g>
<!-- lbb_17038&#45;&gt;lbb_17042 -->
<g id="edge27" class="edge">
<title>lbb_17038&#45;&gt;lbb_17042</title>
<path fill="none" stroke="black" d="M3298.08,-97.05C3306.73,-97.75 3315.37,-98.45 3323.75,-99.13"/>
<polygon fill="black" stroke="black" points="3323.55,-102.63 3333.8,-99.95 3324.12,-95.65 3323.55,-102.63"/>
</g>
<!-- lbb_17042&#45;&gt;lbb_17056 -->
<g id="edge28" class="edge">
<title>lbb_17042&#45;&gt;lbb_17056</title>
<path fill="none" stroke="black" d="M3460.01,-122.09C3468.88,-124.53 3477.78,-126.99 3486.03,-129.26"/>
<polygon fill="black" stroke="black" points="3485.15,-132.65 3495.72,-131.93 3487.01,-125.9 3485.15,-132.65"/>
</g>
</g>
</svg>
