<?xml version="1.0" encoding="UTF-8" standalone="no"?>
<!DOCTYPE svg PUBLIC "-//W3C//DTD SVG 1.1//EN"
 "http://www.w3.org/Graphics/SVG/1.1/DTD/svg11.dtd">
<!-- Generated by graphviz version 2.43.0 (0)
 -->
<!-- Title: %3 Pages: 1 -->
<svg width="1534pt" height="457pt"
 viewBox="0.00 0.00 1534.00 457.00" xmlns="http://www.w3.org/2000/svg" xmlns:xlink="http://www.w3.org/1999/xlink">
<g id="graph0" class="graph" transform="scale(1 1) rotate(0) translate(4 453)">
<title>%3</title>
<polygon fill="white" stroke="transparent" points="-4,4 -4,-453 1530,-453 1530,4 -4,4"/>
<g id="clust1" class="cluster">
<title>cluster_369287</title>
<g id="a_clust1"><a xlink:title="lbb_369287">
<polygon fill="lightgrey" stroke="lightgrey" points="8,-46 8,-441 1518,-441 1518,-46 8,-46"/>
<text text-anchor="middle" x="763" y="-425.8" font-family="Times,serif" font-size="14.00">entrypoint</text>
</a>
</g>
</g>
<!-- lbb_369287 -->
<g id="node1" class="node">
<title>lbb_369287</title>
<polygon fill="white" stroke="black" points="216,-219 16,-219 16,-117 216,-117 216,-219"/>
<text text-anchor="start" x="29" y="-198.8" font-family="Courier New" font-size="14.00">mov64</text>
<text text-anchor="start" x="79" y="-198.8" font-family="Courier New" font-size="14.00">r2, r1</text>
<text text-anchor="start" x="29" y="-175.8" font-family="Courier New" font-size="14.00">mov64</text>
<text text-anchor="start" x="79" y="-175.8" font-family="Courier New" font-size="14.00">r1, r10</text>
<text text-anchor="start" x="29" y="-152.8" font-family="Courier New" font-size="14.00">add64</text>
<text text-anchor="start" x="79" y="-152.8" font-family="Courier New" font-size="14.00">r1, &#45;80</text>
<text text-anchor="start" x="29" y="-129.8" font-family="Courier New" font-size="14.00">call</text>
<text text-anchor="start" x="79" y="-129.8" font-family="Courier New" font-size="14.00">function_387396</text>
</g>
<!-- lbb_369291 -->
<g id="node2" class="node">
<title>lbb_369291</title>
<polygon fill="white" stroke="black" points="461,-409.5 252,-409.5 252,-54.5 461,-54.5 461,-409.5"/>
<text text-anchor="start" x="265.5" y="-388.8" font-family="Courier New" font-size="14.00">ldxdw</text>
<text text-anchor="start" x="315.5" y="-388.8" font-family="Courier New" font-size="14.00">r2, [r10&#45;0x50]</text>
<text text-anchor="start" x="265.5" y="-365.8" font-family="Courier New" font-size="14.00">ldxdw</text>
<text text-anchor="start" x="315.5" y="-365.8" font-family="Courier New" font-size="14.00">r1, [r10&#45;0x48]</text>
<text text-anchor="start" x="265.5" y="-342.8" font-family="Courier New" font-size="14.00">stxdw</text>
<text text-anchor="start" x="315.5" y="-342.8" font-family="Courier New" font-size="14.00">[r10&#45;0x68], r1</text>
<text text-anchor="start" x="265.5" y="-319.8" font-family="Courier New" font-size="14.00">ldxdw</text>
<text text-anchor="start" x="315.5" y="-319.8" font-family="Courier New" font-size="14.00">r4, [r10&#45;0x38]</text>
<text text-anchor="start" x="265.5" y="-296.8" font-family="Courier New" font-size="14.00">stxdw</text>
<text text-anchor="start" x="315.5" y="-296.8" font-family="Courier New" font-size="14.00">[r10&#45;0x58], r4</text>
<text text-anchor="start" x="265.5" y="-273.8" font-family="Courier New" font-size="14.00">ldxdw</text>
<text text-anchor="start" x="315.5" y="-273.8" font-family="Courier New" font-size="14.00">r3, [r10&#45;0x40]</text>
<text text-anchor="start" x="265.5" y="-250.8" font-family="Courier New" font-size="14.00">stxdw</text>
<text text-anchor="start" x="315.5" y="-250.8" font-family="Courier New" font-size="14.00">[r10&#45;0x60], r3</text>
<text text-anchor="start" x="265.5" y="-227.8" font-family="Courier New" font-size="14.00">ldxdw</text>
<text text-anchor="start" x="315.5" y="-227.8" font-family="Courier New" font-size="14.00">r1, [r10&#45;0x28]</text>
<text text-anchor="start" x="265.5" y="-204.8" font-family="Courier New" font-size="14.00">ldxdw</text>
<text text-anchor="start" x="315.5" y="-204.8" font-family="Courier New" font-size="14.00">r5, [r10&#45;0x30]</text>
<text text-anchor="start" x="265.5" y="-181.8" font-family="Courier New" font-size="14.00">stxdw</text>
<text text-anchor="start" x="315.5" y="-181.8" font-family="Courier New" font-size="14.00">[r10&#45;0x1000], r5</text>
<text text-anchor="start" x="265.5" y="-158.8" font-family="Courier New" font-size="14.00">stxdw</text>
<text text-anchor="start" x="315.5" y="-158.8" font-family="Courier New" font-size="14.00">[r10&#45;0xff8], r1</text>
<text text-anchor="start" x="265.5" y="-135.8" font-family="Courier New" font-size="14.00">mov64</text>
<text text-anchor="start" x="315.5" y="-135.8" font-family="Courier New" font-size="14.00">r1, r10</text>
<text text-anchor="start" x="265.5" y="-112.8" font-family="Courier New" font-size="14.00">add64</text>
<text text-anchor="start" x="315.5" y="-112.8" font-family="Courier New" font-size="14.00">r1, &#45;32</text>
<text text-anchor="start" x="265.5" y="-89.8" font-family="Courier New" font-size="14.00">mov64</text>
<text text-anchor="start" x="315.5" y="-89.8" font-family="Courier New" font-size="14.00">r5, r10</text>
<text text-anchor="start" x="265.5" y="-66.8" font-family="Courier New" font-size="14.00">call</text>
<text text-anchor="start" x="315.5" y="-66.8" font-family="Courier New" font-size="14.00">function_336430</text>
</g>
<!-- lbb_369287&#45;&gt;lbb_369291 -->
<g id="edge2" class="edge">
<title>lbb_369287&#45;&gt;lbb_369291</title>
<path fill="none" stroke="black" d="M216.07,-194.59C224.63,-196.88 233.33,-199.22 241.98,-201.54"/>
<polygon fill="black" stroke="black" points="241.17,-204.94 251.73,-204.15 242.98,-198.18 241.17,-204.94"/>
</g>
<!-- lbb_409579 -->
<g id="node8" class="node">
<title>lbb_409579</title>
<polygon fill="white" stroke="black" points="406,-36 307,-36 307,0 406,0 406,-36"/>
<text text-anchor="middle" x="356.5" y="-14.3" font-family="Courier New" font-size="14.00">lbb_409579</text>
</g>
<!-- lbb_369287&#45;&gt;lbb_409579 -->
<g id="edge1" class="edge">
<title>lbb_369287&#45;&gt;lbb_409579</title>
<path fill="none" stroke="black" stroke-dasharray="1,5" d="M159.68,-116.95C184.14,-90.83 216.91,-60.69 252,-42 268.77,-33.07 288.8,-27.44 306.75,-23.9"/>
</g>
<!-- lbb_369306 -->
<g id="node3" class="node">
<title>lbb_369306</title>
<polygon fill="white" stroke="black" points="722,-271.5 497,-271.5 497,-192.5 722,-192.5 722,-271.5"/>
<text text-anchor="start" x="510.5" y="-250.8" font-family="Courier New" font-size="14.00">mov64</text>
<text text-anchor="start" x="560.5" y="-250.8" font-family="Courier New" font-size="14.00">r6, 0</text>
<text text-anchor="start" x="510.5" y="-227.8" font-family="Courier New" font-size="14.00">ldxw</text>
<text text-anchor="start" x="560.5" y="-227.8" font-family="Courier New" font-size="14.00">r1, [r10&#45;0x20]</text>
<text text-anchor="start" x="510.5" y="-204.8" font-family="Courier New" font-size="14.00">jeq</text>
<text text-anchor="start" x="560.5" y="-204.8" font-family="Courier New" font-size="14.00">r1, 22, lbb_369321</text>
</g>
<!-- lbb_369291&#45;&gt;lbb_369306 -->
<g id="edge4" class="edge">
<title>lbb_369291&#45;&gt;lbb_369306</title>
<path fill="none" stroke="black" d="M461.04,-232C469.48,-232 478.07,-232 486.62,-232"/>
<polygon fill="black" stroke="black" points="486.65,-235.5 496.65,-232 486.65,-228.5 486.65,-235.5"/>
</g>
<!-- lbb_369309 -->
<g id="node4" class="node">
<title>lbb_369309</title>
<polygon fill="white" stroke="black" points="958,-340.5 758,-340.5 758,-77.5 958,-77.5 958,-340.5"/>
<text text-anchor="start" x="771" y="-319.8" font-family="Courier New" font-size="14.00">ldxdw</text>
<text text-anchor="start" x="821" y="-319.8" font-family="Courier New" font-size="14.00">r1, [r10&#45;0x8]</text>
<text text-anchor="start" x="771" y="-296.8" font-family="Courier New" font-size="14.00">stxdw</text>
<text text-anchor="start" x="821" y="-296.8" font-family="Courier New" font-size="14.00">[r10&#45;0x38], r1</text>
<text text-anchor="start" x="771" y="-273.8" font-family="Courier New" font-size="14.00">ldxdw</text>
<text text-anchor="start" x="821" y="-273.8" font-family="Courier New" font-size="14.00">r1, [r10&#45;0x10]</text>
<text text-anchor="start" x="771" y="-250.8" font-family="Courier New" font-size="14.00">stxdw</text>
<text text-anchor="start" x="821" y="-250.8" font-family="Courier New" font-size="14.00">[r10&#45;0x40], r1</text>
<text text-anchor="start" x="771" y="-227.8" font-family="Courier New" font-size="14.00">ldxdw</text>
<text text-anchor="start" x="821" y="-227.8" font-family="Courier New" font-size="14.00">r1, [r10&#45;0x18]</text>
<text text-anchor="start" x="771" y="-204.8" font-family="Courier New" font-size="14.00">stxdw</text>
<text text-anchor="start" x="821" y="-204.8" font-family="Courier New" font-size="14.00">[r10&#45;0x48], r1</text>
<text text-anchor="start" x="771" y="-181.8" font-family="Courier New" font-size="14.00">ldxdw</text>
<text text-anchor="start" x="821" y="-181.8" font-family="Courier New" font-size="14.00">r1, [r10&#45;0x20]</text>
<text text-anchor="start" x="771" y="-158.8" font-family="Courier New" font-size="14.00">stxdw</text>
<text text-anchor="start" x="821" y="-158.8" font-family="Courier New" font-size="14.00">[r10&#45;0x50], r1</text>
<text text-anchor="start" x="771" y="-135.8" font-family="Courier New" font-size="14.00">mov64</text>
<text text-anchor="start" x="821" y="-135.8" font-family="Courier New" font-size="14.00">r1, r10</text>
<text text-anchor="start" x="771" y="-112.8" font-family="Courier New" font-size="14.00">add64</text>
<text text-anchor="start" x="821" y="-112.8" font-family="Courier New" font-size="14.00">r1, &#45;80</text>
<text text-anchor="start" x="771" y="-89.8" font-family="Courier New" font-size="14.00">call</text>
<text text-anchor="start" x="821" y="-89.8" font-family="Courier New" font-size="14.00">function_389183</text>
</g>
<!-- lbb_369306&#45;&gt;lbb_369309 -->
<g id="edge6" class="edge">
<title>lbb_369306&#45;&gt;lbb_369309</title>
<path fill="none" stroke="black" d="M722.21,-221.58C730.63,-220.79 739.13,-220 747.54,-219.21"/>
<polygon fill="black" stroke="black" points="748.11,-222.68 757.74,-218.26 747.46,-215.71 748.11,-222.68"/>
</g>
<!-- lbb_369321 -->
<g id="node6" class="node">
<title>lbb_369321</title>
<polygon fill="white" stroke="black" points="1348,-351.5 1156,-351.5 1156,-272.5 1348,-272.5 1348,-351.5"/>
<text text-anchor="start" x="1169" y="-330.8" font-family="Courier New" font-size="14.00">mov64</text>
<text text-anchor="start" x="1219" y="-330.8" font-family="Courier New" font-size="14.00">r1, r10</text>
<text text-anchor="start" x="1169" y="-307.8" font-family="Courier New" font-size="14.00">add64</text>
<text text-anchor="start" x="1219" y="-307.8" font-family="Courier New" font-size="14.00">r1, &#45;104</text>
<text text-anchor="start" x="1169" y="-284.8" font-family="Courier New" font-size="14.00">call</text>
<text text-anchor="start" x="1219" y="-284.8" font-family="Courier New" font-size="14.00">function_17014</text>
</g>
<!-- lbb_369306&#45;&gt;lbb_369321 -->
<g id="edge7" class="edge">
<title>lbb_369306&#45;&gt;lbb_369321</title>
<path fill="none" stroke="black" d="M645.48,-271.6C672.91,-299.48 713.75,-334.48 758,-350 886.11,-394.94 1044.08,-369.85 1146.13,-344.11"/>
<polygon fill="black" stroke="black" points="1147.01,-347.49 1155.83,-341.62 1145.27,-340.71 1147.01,-347.49"/>
</g>
<!-- lbb_369320 -->
<g id="node5" class="node">
<title>lbb_369320</title>
<polygon fill="white" stroke="black" points="1120,-261 994,-261 994,-225 1120,-225 1120,-261"/>
<text text-anchor="start" x="1007" y="-238.8" font-family="Courier New" font-size="14.00">mov64</text>
<text text-anchor="start" x="1057" y="-238.8" font-family="Courier New" font-size="14.00">r6, r0</text>
</g>
<!-- lbb_369309&#45;&gt;lbb_369320 -->
<g id="edge9" class="edge">
<title>lbb_369309&#45;&gt;lbb_369320</title>
<path fill="none" stroke="black" d="M958.08,-226.1C966.73,-227.59 975.37,-229.08 983.75,-230.53"/>
<polygon fill="black" stroke="black" points="983.35,-234.01 993.8,-232.27 984.55,-227.12 983.35,-234.01"/>
</g>
<!-- lbb_369320&#45;&gt;lbb_369321 -->
<g id="edge11" class="edge">
<title>lbb_369320&#45;&gt;lbb_369321</title>
<path fill="none" stroke="black" d="M1108.46,-261.04C1120.23,-265.25 1133.2,-269.88 1146.37,-274.59"/>
<polygon fill="black" stroke="black" points="1145.39,-277.96 1155.98,-278.03 1147.74,-271.37 1145.39,-277.96"/>
</g>
<!-- lbb_369324 -->
<g id="node7" class="node">
<title>lbb_369324</title>
<polygon fill="white" stroke="black" points="1510,-340 1384,-340 1384,-284 1510,-284 1510,-340"/>
<text text-anchor="start" x="1397" y="-319.8" font-family="Courier New" font-size="14.00">mov64</text>
<text text-anchor="start" x="1447" y="-319.8" font-family="Courier New" font-size="14.00">r0, r6</text>
<text text-anchor="start" x="1397" y="-296.8" font-family="Courier New" font-size="14.00">exit</text>
</g>
<!-- lbb_369321&#45;&gt;lbb_369324 -->
<g id="edge13" class="edge">
<title>lbb_369321&#45;&gt;lbb_369324</title>
<path fill="none" stroke="black" d="M1348.09,-312C1356.75,-312 1365.42,-312 1373.83,-312"/>
<polygon fill="black" stroke="black" points="1373.94,-315.5 1383.94,-312 1373.94,-308.5 1373.94,-315.5"/>
</g>
</g>
</svg>
